<svg xmlns="http://www.w3.org/2000/svg" viewBox="0 0 300 400" width="600" height="800">
  <defs>
    <linearGradient id="bg" x1="0" y1="0" x2="1" y2="1">
      <stop offset="0" stop-color="#fafaf6"/>
      <stop offset="1" stop-color="#cbd1ca"/>
    </linearGradient>
    <radialGradient id="glow" cx="0.5" cy="0.44" r="0.5">
      <stop offset="0" stop-color="#ffffff" stop-opacity="0.75"/>
      <stop offset="1" stop-color="#ffffff" stop-opacity="0"/>
    </radialGradient>
  </defs>
  <rect width="300" height="400" fill="url(#bg)"/>
  <circle cx="150" cy="178" r="150" fill="url(#glow)"/>
  <g><path d="M0 0 Q3.1870481691095 -4.1934844330389 0 -8.3869688660777 Q-3.1870481691095 -4.1934844330389 0 0 Z" fill="#23402c" fill-opacity="0.5" transform="translate(174.2 47.4) rotate(47)"/><path d="M0 0 Q4.3494653045914 -5.7229806639361 0 -11.445961327872 Q-4.3494653045914 -5.7229806639361 0 0 Z" fill="#4d7843" fill-opacity="0.5" transform="translate(257.1 73.4) rotate(274)"/><path d="M0 0 Q3.2411609260129 -4.2646854289643 0 -8.5293708579286 Q-3.2411609260129 -4.2646854289643 0 0 Z" fill="#23402c" fill-opacity="0.5" transform="translate(134.2 57.8) rotate(343)"/><path d="M0 0 Q3.4243390295004 -4.5057092493427 0 -9.0114184986853 Q-3.4243390295004 -4.5057092493427 0 0 Z" fill="#4d7843" fill-opacity="0.5" transform="translate(33 151.3) rotate(218)"/><path d="M0 0 Q2.9967612202804 -3.94310686879 0 -7.8862137375801 Q-2.9967612202804 -3.94310686879 0 0 Z" fill="#23402c" fill-opacity="0.5" transform="translate(240.2 364.2) rotate(224)"/><path d="M0 0 Q5.6361997563356 -7.4160523109678 0 -14.832104621936 Q-5.6361997563356 -7.4160523109678 0 0 Z" fill="#4d7843" fill-opacity="0.5" transform="translate(265.8 111.7) rotate(348)"/><path d="M0 0 Q3.7722178599761 -4.9634445526001 0 -9.9268891052002 Q-3.7722178599761 -4.9634445526001 0 0 Z" fill="#23402c" fill-opacity="0.5" transform="translate(87.1 53.8) rotate(340)"/><path d="M0 0 Q4.8416132479746 -6.370543747335 0 -12.74108749467 Q-4.8416132479746 -6.370543747335 0 0 Z" fill="#4d7843" fill-opacity="0.5" transform="translate(184.4 65) rotate(69)"/><path d="M0 0 Q5.8005334206654 -7.632280816665 0 -15.26456163333 Q-5.8005334206654 -7.632280816665 0 0 Z" fill="#23402c" fill-opacity="0.5" transform="translate(239.1 340.2) rotate(179)"/><path d="M0 0 Q3.0135968118578 -3.9652589629708 0 -7.9305179259416 Q-3.0135968118578 -3.9652589629708 0 0 Z" fill="#4d7843" fill-opacity="0.5" transform="translate(160.7 364.5) rotate(325)"/><path d="M0 0 Q3.1239460613467 -4.1104553438772 0 -8.2209106877544 Q-3.1239460613467 -4.1104553438772 0 0 Z" fill="#23402c" fill-opacity="0.5" transform="translate(53 352.5) rotate(110)"/><path d="M0 0 Q3.9273342783057 -5.1675451030338 0 -10.335090206068 Q-3.9273342783057 -5.1675451030338 0 0 Z" fill="#4d7843" fill-opacity="0.5" transform="translate(265.1 45.6) rotate(144)"/><path d="M0 0 Q5.7926042263157 -7.6218476662048 0 -15.24369533241 Q-5.7926042263157 -7.6218476662048 0 0 Z" fill="#23402c" fill-opacity="0.5" transform="translate(52.5 65.1) rotate(229)"/><path d="M0 0 Q3.3808410487365 -4.448475064127 0 -8.896950128254 Q-3.3808410487365 -4.448475064127 0 0 Z" fill="#4d7843" fill-opacity="0.5" transform="translate(56.8 40.5) rotate(293)"/><path d="M0 0 Q3.9732921506731 -5.2280159877278 0 -10.456031975456 Q-3.9732921506731 -5.2280159877278 0 0 Z" fill="#23402c" fill-opacity="0.5" transform="translate(30.4 217.9) rotate(333)"/><path d="M0 0 Q4.1884661918955 -5.5111397261783 0 -11.022279452357 Q-4.1884661918955 -5.5111397261783 0 0 Z" fill="#4d7843" fill-opacity="0.5" transform="translate(257.8 310.5) rotate(190)"/><path d="M0 0 Q3.9536037620183 -5.202110213182 0 -10.404220426364 Q-3.9536037620183 -5.202110213182 0 0 Z" fill="#23402c" fill-opacity="0.5" transform="translate(49.9 116.4) rotate(240)"/><path d="M0 0 Q4.1094422500438 -5.4071608553208 0 -10.814321710642 Q-4.1094422500438 -5.4071608553208 0 0 Z" fill="#4d7843" fill-opacity="0.5" transform="translate(59.5 218.7) rotate(35)"/><path d="M0 0 Q2.6354957770405 -3.4677576013691 0 -6.9355152027381 Q-2.6354957770405 -3.4677576013691 0 0 Z" fill="#23402c" fill-opacity="0.5" transform="translate(31.7 330.9) rotate(40)"/><path d="M0 0 Q3.4414087417896 -4.5281693970916 0 -9.0563387941831 Q-3.4414087417896 -4.5281693970916 0 0 Z" fill="#4d7843" fill-opacity="0.5" transform="translate(262.3 181.8) rotate(139)"/><path d="M0 0 Q3.8238452561814 -5.0313753370807 0 -10.062750674161 Q-3.8238452561814 -5.0313753370807 0 0 Z" fill="#23402c" fill-opacity="0.5" transform="translate(240 91.6) rotate(98)"/><path d="M0 0 Q5.148900424086 -6.7748689790605 0 -13.549737958121 Q-5.148900424086 -6.7748689790605 0 0 Z" fill="#4d7843" fill-opacity="0.5" transform="translate(241.6 270.1) rotate(113)"/></g>
  <rect x="14" y="14" width="272" height="372" rx="16" fill="none" stroke="#23402c" stroke-opacity="0.55" stroke-width="1.4"/>
  <rect x="21" y="21" width="258" height="358" rx="12" fill="none" stroke="#23402c" stroke-opacity="0.3" stroke-width="0.7"/>
  <g transform="translate(30 30) rotate(0)" fill="none" stroke="#23402c" stroke-width="1" stroke-opacity="0.7"><path d="M0 22 Q0 0 22 0"/><path d="M6 22 Q6 6 22 6" stroke-opacity="0.4"/><circle cx="0" cy="0" r="2" fill="#23402c" stroke="none"/></g><g transform="translate(270 30) rotate(90)" fill="none" stroke="#23402c" stroke-width="1" stroke-opacity="0.7"><path d="M0 22 Q0 0 22 0"/><path d="M6 22 Q6 6 22 6" stroke-opacity="0.4"/><circle cx="0" cy="0" r="2" fill="#23402c" stroke="none"/></g><g transform="translate(270 370) rotate(180)" fill="none" stroke="#23402c" stroke-width="1" stroke-opacity="0.7"><path d="M0 22 Q0 0 22 0"/><path d="M6 22 Q6 6 22 6" stroke-opacity="0.4"/><circle cx="0" cy="0" r="2" fill="#23402c" stroke="none"/></g><g transform="translate(30 370) rotate(270)" fill="none" stroke="#23402c" stroke-width="1" stroke-opacity="0.7"><path d="M0 22 Q0 0 22 0"/><path d="M6 22 Q6 6 22 6" stroke-opacity="0.4"/><circle cx="0" cy="0" r="2" fill="#23402c" stroke="none"/></g>
  <text x="150" y="58" text-anchor="middle" font-family="'Helvetica Neue', Arial, sans-serif" font-size="10.5" font-weight="600" letter-spacing="3.2" fill="#192d1f" fill-opacity="0.85">TASYAKURAN AQIQAH</text>
  <g transform="translate(150 180)"><path d="M0 0 Q8.36 -11 0 -22 Q-8.36 -11 0 0 Z" fill="#23402c" fill-opacity="0.85" transform="translate(0 -58) rotate(65)"/><path d="M0 0 Q8.36 -11 0 -22 Q-8.36 -11 0 0 Z" fill="#4d7843" fill-opacity="0.85" transform="translate(16.3 -55.7) rotate(131.36363636364)"/><path d="M0 0 Q8.36 -11 0 -22 Q-8.36 -11 0 0 Z" fill="#4d7843" fill-opacity="0.85" transform="translate(31.4 -48.8) rotate(97.727272727273)"/><path d="M0 0 Q8.36 -11 0 -22 Q-8.36 -11 0 0 Z" fill="#23402c" fill-opacity="0.85" transform="translate(43.8 -38) rotate(164.09090909091)"/><path d="M0 0 Q8.36 -11 0 -22 Q-8.36 -11 0 0 Z" fill="#4d7843" fill-opacity="0.85" transform="translate(52.8 -24.1) rotate(130.45454545455)"/><path d="M0 0 Q8.36 -11 0 -22 Q-8.36 -11 0 0 Z" fill="#4d7843" fill-opacity="0.85" transform="translate(57.4 -8.3) rotate(196.81818181818)"/><path d="M0 0 Q8.36 -11 0 -22 Q-8.36 -11 0 0 Z" fill="#23402c" fill-opacity="0.85" transform="translate(57.4 8.3) rotate(163.18181818182)"/><path d="M0 0 Q8.36 -11 0 -22 Q-8.36 -11 0 0 Z" fill="#4d7843" fill-opacity="0.85" transform="translate(52.8 24.1) rotate(229.54545454545)"/><path d="M0 0 Q8.36 -11 0 -22 Q-8.36 -11 0 0 Z" fill="#4d7843" fill-opacity="0.85" transform="translate(43.8 38) rotate(195.90909090909)"/><path d="M0 0 Q8.36 -11 0 -22 Q-8.36 -11 0 0 Z" fill="#23402c" fill-opacity="0.85" transform="translate(31.4 48.8) rotate(262.27272727273)"/><path d="M0 0 Q8.36 -11 0 -22 Q-8.36 -11 0 0 Z" fill="#4d7843" fill-opacity="0.85" transform="translate(-31.4 48.8) rotate(327.72727272727)"/><path d="M0 0 Q8.36 -11 0 -22 Q-8.36 -11 0 0 Z" fill="#4d7843" fill-opacity="0.85" transform="translate(-43.8 38) rotate(294.09090909091)"/><path d="M0 0 Q8.36 -11 0 -22 Q-8.36 -11 0 0 Z" fill="#23402c" fill-opacity="0.85" transform="translate(-52.8 24.1) rotate(360.45454545455)"/><path d="M0 0 Q8.36 -11 0 -22 Q-8.36 -11 0 0 Z" fill="#4d7843" fill-opacity="0.85" transform="translate(-57.4 8.3) rotate(326.81818181818)"/><path d="M0 0 Q8.36 -11 0 -22 Q-8.36 -11 0 0 Z" fill="#4d7843" fill-opacity="0.85" transform="translate(-57.4 -8.3) rotate(393.18181818182)"/><path d="M0 0 Q8.36 -11 0 -22 Q-8.36 -11 0 0 Z" fill="#23402c" fill-opacity="0.85" transform="translate(-52.8 -24.1) rotate(359.54545454545)"/><path d="M0 0 Q8.36 -11 0 -22 Q-8.36 -11 0 0 Z" fill="#4d7843" fill-opacity="0.85" transform="translate(-43.8 -38) rotate(425.90909090909)"/><path d="M0 0 Q8.36 -11 0 -22 Q-8.36 -11 0 0 Z" fill="#4d7843" fill-opacity="0.85" transform="translate(-31.4 -48.8) rotate(392.27272727273)"/><path d="M0 0 Q8.36 -11 0 -22 Q-8.36 -11 0 0 Z" fill="#23402c" fill-opacity="0.85" transform="translate(-16.3 -55.7) rotate(458.63636363636)"/><circle r="36" fill="#bdc6c0" fill-opacity="0.5" stroke="#23402c" stroke-width="1.2"/><path d="M0 0 Q12.92 -17 0 -34 Q-12.92 -17 0 0 Z" fill="#23402c" fill-opacity="0.9" transform="translate(0 14) rotate(0)"/><path d="M0 0 Q9.88 -13 0 -26 Q-9.88 -13 0 0 Z" fill="#4d7843" fill-opacity="0.9" transform="translate(0 14) rotate(-40)"/><path d="M0 0 Q9.88 -13 0 -26 Q-9.88 -13 0 0 Z" fill="#4d7843" fill-opacity="0.9" transform="translate(0 14) rotate(40)"/><path d="M-8 62 Q0 54 8 62" fill="none" stroke="#23402c" stroke-width="2"/></g>
  <text x="150" y="304" text-anchor="middle" font-family="Georgia, 'Times New Roman', serif" font-style="italic" font-size="28" fill="#192d1f">Khanza</text>
  <g fill="#23402c" stroke="#23402c">
    <line x1="104" y1="322" x2="140" y2="322" stroke-width="0.8" stroke-opacity="0.6"/>
    <line x1="160" y1="322" x2="196" y2="322" stroke-width="0.8" stroke-opacity="0.6"/>
    <path d="M150 317 L154 322 L150 327 L146 322 Z" stroke="none"/>
  </g>
  <text x="150" y="346" text-anchor="middle" font-family="'Helvetica Neue', Arial, sans-serif" font-size="10" letter-spacing="2.4" fill="#192d1f" fill-opacity="0.7">08 . 08 . 2026</text>
</svg>