<svg xmlns="http://www.w3.org/2000/svg" viewBox="0 0 300 400" width="600" height="800">
  <defs>
    <linearGradient id="bg" x1="0" y1="0" x2="1" y2="1">
      <stop offset="0" stop-color="#fefaff"/>
      <stop offset="1" stop-color="#fcf3ff"/>
    </linearGradient>
    <radialGradient id="glow" cx="0.5" cy="0.44" r="0.5">
      <stop offset="0" stop-color="#ffffff" stop-opacity="0.75"/>
      <stop offset="1" stop-color="#ffffff" stop-opacity="0"/>
    </radialGradient>
  </defs>
  <rect width="300" height="400" fill="url(#bg)"/>
  <circle cx="150" cy="178" r="150" fill="url(#glow)"/>
  <g><path d="M0 0 Q4.6074217362718 -6.0623970214102 0 -12.12479404282 Q-4.6074217362718 -6.0623970214102 0 0 Z" fill="#9f8ca4" fill-opacity="0.5" transform="translate(30.7 325.3) rotate(135)"/><path d="M0 0 Q5.677511174225 -7.4704094397698 0 -14.94081887954 Q-5.677511174225 -7.4704094397698 0 0 Z" fill="#6c8b61" fill-opacity="0.5" transform="translate(244 213) rotate(44)"/><path d="M0 0 Q3.1892241681336 -4.1963475896494 0 -8.3926951792988 Q-3.1892241681336 -4.1963475896494 0 0 Z" fill="#9f8ca4" fill-opacity="0.5" transform="translate(56.8 229.9) rotate(257)"/><path d="M0 0 Q3.1682412935962 -4.1687385442055 0 -8.3374770884111 Q-3.1682412935962 -4.1687385442055 0 0 Z" fill="#6c8b61" fill-opacity="0.5" transform="translate(91.4 37.1) rotate(344)"/><path d="M0 0 Q3.6478000921476 -4.7997369633521 0 -9.5994739267041 Q-3.6478000921476 -4.7997369633521 0 0 Z" fill="#9f8ca4" fill-opacity="0.5" transform="translate(254.6 234) rotate(178)"/><path d="M0 0 Q4.8978370823142 -6.4445224767292 0 -12.889044953458 Q-4.8978370823142 -6.4445224767292 0 0 Z" fill="#6c8b61" fill-opacity="0.5" transform="translate(199.2 48.7) rotate(205)"/><path d="M0 0 Q5.830954439973 -7.6723084736486 0 -15.344616947297 Q-5.830954439973 -7.6723084736486 0 0 Z" fill="#9f8ca4" fill-opacity="0.5" transform="translate(58.4 76) rotate(218)"/><path d="M0 0 Q4.3271804650776 -5.6936585066811 0 -11.387317013362 Q-4.3271804650776 -5.6936585066811 0 0 Z" fill="#6c8b61" fill-opacity="0.5" transform="translate(49.3 187.2) rotate(149)"/><path d="M0 0 Q2.7216227762278 -3.5810826002998 0 -7.1621652005995 Q-2.7216227762278 -3.5810826002998 0 0 Z" fill="#9f8ca4" fill-opacity="0.5" transform="translate(46.6 220.9) rotate(130)"/><path d="M0 0 Q4.892641125426 -6.43768569135 0 -12.8753713827 Q-4.892641125426 -6.43768569135 0 0 Z" fill="#6c8b61" fill-opacity="0.5" transform="translate(59.2 62.5) rotate(66)"/><path d="M0 0 Q4.9530189992921 -6.5171302622264 0 -13.034260524453 Q-4.9530189992921 -6.5171302622264 0 0 Z" fill="#9f8ca4" fill-opacity="0.5" transform="translate(127.2 50.7) rotate(251)"/><path d="M0 0 Q3.5685147884286 -4.6954141953007 0 -9.3908283906015 Q-3.5685147884286 -4.6954141953007 0 0 Z" fill="#6c8b61" fill-opacity="0.5" transform="translate(39.5 56.2) rotate(7)"/><path d="M0 0 Q2.8347076269643 -3.729878456532 0 -7.4597569130639 Q-2.8347076269643 -3.729878456532 0 0 Z" fill="#9f8ca4" fill-opacity="0.5" transform="translate(247.7 206.8) rotate(103)"/><path d="M0 0 Q4.8578955033859 -6.391967767613 0 -12.783935535226 Q-4.8578955033859 -6.391967767613 0 0 Z" fill="#6c8b61" fill-opacity="0.5" transform="translate(58.9 235.1) rotate(116)"/><path d="M0 0 Q3.6165574516228 -4.7586282258195 0 -9.517256451639 Q-3.6165574516228 -4.7586282258195 0 0 Z" fill="#9f8ca4" fill-opacity="0.5" transform="translate(61.6 239.6) rotate(199)"/><path d="M0 0 Q4.5077215642928 -5.9312125845958 0 -11.862425169192 Q-4.5077215642928 -5.9312125845958 0 0 Z" fill="#6c8b61" fill-opacity="0.5" transform="translate(31.2 337.4) rotate(146)"/><path d="M0 0 Q5.358700684124 -7.0509219527947 0 -14.101843905589 Q-5.358700684124 -7.0509219527947 0 0 Z" fill="#9f8ca4" fill-opacity="0.5" transform="translate(205.4 43.5) rotate(277)"/><path d="M0 0 Q2.6160155712944 -3.4421257517031 0 -6.8842515034062 Q-2.6160155712944 -3.4421257517031 0 0 Z" fill="#6c8b61" fill-opacity="0.5" transform="translate(260.2 219.5) rotate(330)"/><path d="M0 0 Q4.6961976629925 -6.1792074513059 0 -12.358414902612 Q-4.6961976629925 -6.1792074513059 0 0 Z" fill="#9f8ca4" fill-opacity="0.5" transform="translate(164.6 49.4) rotate(340)"/><path d="M0 0 Q4.8861882011416 -6.4291950015021 0 -12.858390003004 Q-4.8861882011416 -6.4291950015021 0 0 Z" fill="#6c8b61" fill-opacity="0.5" transform="translate(31.2 150.3) rotate(125)"/><path d="M0 0 Q5.3210419215025 -7.0013709493453 0 -14.002741898691 Q-5.3210419215025 -7.0013709493453 0 0 Z" fill="#9f8ca4" fill-opacity="0.5" transform="translate(45.6 328.5) rotate(237)"/><path d="M0 0 Q3.4391307324707 -4.5251720164088 0 -9.0503440328177 Q-3.4391307324707 -4.5251720164088 0 0 Z" fill="#6c8b61" fill-opacity="0.5" transform="translate(44.4 221.1) rotate(198)"/></g>
  <rect x="14" y="14" width="272" height="372" rx="16" fill="none" stroke="#9f8ca4" stroke-opacity="0.55" stroke-width="1.4"/>
  <rect x="21" y="21" width="258" height="358" rx="12" fill="none" stroke="#9f8ca4" stroke-opacity="0.3" stroke-width="0.7"/>
  <g transform="translate(30 30) rotate(0)" fill="none" stroke="#9f8ca4" stroke-width="1" stroke-opacity="0.7"><path d="M0 22 Q0 0 22 0"/><path d="M6 22 Q6 6 22 6" stroke-opacity="0.4"/><circle cx="0" cy="0" r="2" fill="#9f8ca4" stroke="none"/></g><g transform="translate(270 30) rotate(90)" fill="none" stroke="#9f8ca4" stroke-width="1" stroke-opacity="0.7"><path d="M0 22 Q0 0 22 0"/><path d="M6 22 Q6 6 22 6" stroke-opacity="0.4"/><circle cx="0" cy="0" r="2" fill="#9f8ca4" stroke="none"/></g><g transform="translate(270 370) rotate(180)" fill="none" stroke="#9f8ca4" stroke-width="1" stroke-opacity="0.7"><path d="M0 22 Q0 0 22 0"/><path d="M6 22 Q6 6 22 6" stroke-opacity="0.4"/><circle cx="0" cy="0" r="2" fill="#9f8ca4" stroke="none"/></g><g transform="translate(30 370) rotate(270)" fill="none" stroke="#9f8ca4" stroke-width="1" stroke-opacity="0.7"><path d="M0 22 Q0 0 22 0"/><path d="M6 22 Q6 6 22 6" stroke-opacity="0.4"/><circle cx="0" cy="0" r="2" fill="#9f8ca4" stroke="none"/></g>
  <text x="150" y="58" text-anchor="middle" font-family="'Helvetica Neue', Arial, sans-serif" font-size="10.5" font-weight="600" letter-spacing="3.2" fill="#6f6273" fill-opacity="0.85">TASYAKURAN AQIQAH</text>
  <g transform="translate(150 180)"><rect x="-28" y="20" width="8" height="30" rx="3" fill="#483f4a"/><rect x="20" y="20" width="8" height="30" rx="3" fill="#483f4a"/><g fill="#ffffff" stroke="#9f8ca4" stroke-width="1.5"><circle cx="-34" cy="0" r="20"/><circle cx="-20" cy="-16" r="20"/><circle cx="0" cy="-20" r="20"/><circle cx="20" cy="-16" r="20"/><circle cx="34" cy="0" r="20"/><circle cx="22" cy="16" r="20"/><circle cx="0" cy="20" r="20"/><circle cx="-22" cy="16" r="20"/><circle cx="0" cy="0" r="20"/></g><circle r="26" fill="#ffffff"/><ellipse cx="-46" cy="-8" rx="16" ry="20" fill="#9f8ca4"/><ellipse cx="-58" cy="-18" rx="9" ry="5" fill="#9f8ca4" transform="rotate(-30 -58 -18)"/><circle cx="-50" cy="-12" r="2.5" fill="#ffffff"/><path d="M50 -62 A12 12 0 1 0 50 -38 A14.4 14.4 0 0 1 50 -62 Z" fill="#46c2fc"/><path d="M66 -64 L67.47 -60.02 L71.71 -59.85 L68.38 -57.23 L69.53 -53.15 L66 -55.5 L62.47 -53.15 L63.62 -57.23 L60.29 -59.85 L64.53 -60.02 Z" fill="#46c2fc"/></g>
  <text x="150" y="304" text-anchor="middle" font-family="Georgia, 'Times New Roman', serif" font-style="italic" font-size="28" fill="#6f6273">Yusuf</text>
  <g fill="#9f8ca4" stroke="#9f8ca4">
    <line x1="104" y1="322" x2="140" y2="322" stroke-width="0.8" stroke-opacity="0.6"/>
    <line x1="160" y1="322" x2="196" y2="322" stroke-width="0.8" stroke-opacity="0.6"/>
    <path d="M150 317 L154 322 L150 327 L146 322 Z" stroke="none"/>
  </g>
  <text x="150" y="346" text-anchor="middle" font-family="'Helvetica Neue', Arial, sans-serif" font-size="10" letter-spacing="2.4" fill="#6f6273" fill-opacity="0.7">05 . 04 . 2026</text>
</svg>