<svg xmlns="http://www.w3.org/2000/svg" viewBox="0 0 300 400" width="600" height="800">
  <defs>
    <linearGradient id="bg" x1="0" y1="0" x2="1" y2="1">
      <stop offset="0" stop-color="#e7e5f5"/>
      <stop offset="1" stop-color="#c1bce4"/>
    </linearGradient>
    <radialGradient id="glow" cx="0.5" cy="0.44" r="0.5">
      <stop offset="0" stop-color="#ffffff" stop-opacity="0.75"/>
      <stop offset="1" stop-color="#ffffff" stop-opacity="0"/>
    </radialGradient>
  </defs>
  <rect width="300" height="400" fill="url(#bg)"/>
  <circle cx="150" cy="178" r="150" fill="url(#glow)"/>
  <g><path d="M34.57 141.84 L35.91 143.59 L38.11 143.8 L36.36 145.14 L36.15 147.34 L34.8 145.59 L32.6 145.38 L34.35 144.03 Z" fill="#3b2aa8" fill-opacity="0.8"/><path d="M254.5 169.29 L258.75 169.78 L262 167 L261.52 171.25 L264.3 174.5 L260.05 174.02 L256.79 176.8 L257.28 172.55 Z" fill="#f0399b" fill-opacity="0.8"/><path d="M67.29 367.15 L71.2 366.07 L73.07 362.47 L74.16 366.38 L77.76 368.25 L73.85 369.34 L71.97 372.94 L70.89 369.03 Z" fill="#c4bfe5" fill-opacity="0.8"/><path d="M191.39 61.68 L188.67 63.62 L188.23 66.93 L186.29 64.21 L182.98 63.78 L185.7 61.83 L186.13 58.52 L188.08 61.24 Z" fill="#3b2aa8" fill-opacity="0.8"/><path d="M158.48 43.98 L158.8 40.59 L156.55 38.04 L159.94 38.37 L162.49 36.11 L162.17 39.5 L164.42 42.05 L161.03 41.73 Z" fill="#f0399b" fill-opacity="0.8"/><path d="M220.44 61.74 L223.03 65.8 L227.76 66.68 L223.7 69.26 L222.82 74 L220.24 69.94 L215.5 69.06 L219.56 66.47 Z" fill="#c4bfe5" fill-opacity="0.8"/><path d="M235.2 92.75 L237.83 92.07 L239.13 89.68 L239.81 92.31 L242.2 93.61 L239.57 94.29 L238.27 96.68 L237.59 94.05 Z" fill="#3b2aa8" fill-opacity="0.8"/><path d="M33.19 312.36 L36.5 314.72 L40.48 313.91 L38.12 317.22 L38.93 321.2 L35.62 318.85 L31.64 319.65 L33.99 316.34 Z" fill="#f0399b" fill-opacity="0.8"/><path d="M242.17 89.72 L244.91 91.67 L248.22 91 L246.26 93.75 L246.93 97.05 L244.19 95.09 L240.89 95.77 L242.84 93.02 Z" fill="#c4bfe5" fill-opacity="0.8"/><path d="M169.32 65.47 L169.41 68.64 L171.79 70.75 L168.61 70.83 L166.51 73.21 L166.42 70.04 L164.04 67.93 L167.22 67.85 Z" fill="#3b2aa8" fill-opacity="0.8"/><path d="M34.51 179.42 L31.5 180.79 L30.45 183.93 L29.07 180.92 L25.94 179.87 L28.95 178.5 L30 175.36 L31.37 178.37 Z" fill="#f0399b" fill-opacity="0.8"/><path d="M184.1 39.83 L188.82 39.37 L191.71 35.61 L192.16 40.33 L195.92 43.22 L191.2 43.68 L188.32 47.44 L187.86 42.72 Z" fill="#c4bfe5" fill-opacity="0.8"/><path d="M262.91 72.06 L259.49 70.72 L256.17 72.3 L257.52 68.88 L255.94 65.56 L259.35 66.9 L262.67 65.32 L261.33 68.74 Z" fill="#3b2aa8" fill-opacity="0.8"/><path d="M52.79 348.42 L53.05 352.66 L56.32 355.36 L52.08 355.62 L49.38 358.9 L49.12 354.66 L45.84 351.96 L50.08 351.7 Z" fill="#f0399b" fill-opacity="0.8"/><path d="M60.14 50.43 L58.61 46.9 L54.98 45.61 L58.51 44.08 L59.8 40.45 L61.33 43.98 L64.96 45.27 L61.43 46.8 Z" fill="#c4bfe5" fill-opacity="0.8"/><path d="M256.61 334.02 L258.54 329.96 L256.89 325.77 L260.95 327.71 L265.14 326.06 L263.21 330.12 L264.85 334.31 L260.79 332.38 Z" fill="#3b2aa8" fill-opacity="0.8"/><path d="M256.32 218.69 L260.31 217.72 L262.34 214.15 L263.3 218.14 L266.87 220.17 L262.88 221.13 L260.85 224.7 L259.89 220.71 Z" fill="#f0399b" fill-opacity="0.8"/><path d="M48.88 66.39 L47.04 69.78 L48.26 73.44 L44.87 71.6 L41.21 72.82 L43.05 69.43 L41.82 65.77 L45.22 67.61 Z" fill="#c4bfe5" fill-opacity="0.8"/><path d="M267.45 91.53 L266.83 95.69 L269.45 98.98 L265.29 98.36 L262 100.98 L262.62 96.82 L260 93.53 L264.16 94.15 Z" fill="#3b2aa8" fill-opacity="0.8"/><path d="M115.75 63.81 L114.43 61.66 L111.96 61.15 L114.11 59.83 L114.61 57.36 L115.93 59.51 L118.41 60.02 L116.25 61.34 Z" fill="#f0399b" fill-opacity="0.8"/><path d="M45.06 295.9 L40.85 295.05 L37.35 297.54 L38.2 293.33 L35.71 289.83 L39.92 290.68 L43.42 288.19 L42.57 292.4 Z" fill="#c4bfe5" fill-opacity="0.8"/><path d="M234.66 121.43 L237.38 118.13 L236.83 113.89 L240.12 116.61 L244.36 116.06 L241.64 119.35 L242.2 123.59 L238.9 120.87 Z" fill="#3b2aa8" fill-opacity="0.8"/></g>
  <rect x="14" y="14" width="272" height="372" rx="16" fill="none" stroke="#3b2aa8" stroke-opacity="0.55" stroke-width="1.4"/>
  <rect x="21" y="21" width="258" height="358" rx="12" fill="none" stroke="#3b2aa8" stroke-opacity="0.3" stroke-width="0.7"/>
  <g transform="translate(30 30) rotate(0)" fill="none" stroke="#3b2aa8" stroke-width="1" stroke-opacity="0.7"><path d="M0 22 Q0 0 22 0"/><path d="M6 22 Q6 6 22 6" stroke-opacity="0.4"/><circle cx="0" cy="0" r="2" fill="#3b2aa8" stroke="none"/></g><g transform="translate(270 30) rotate(90)" fill="none" stroke="#3b2aa8" stroke-width="1" stroke-opacity="0.7"><path d="M0 22 Q0 0 22 0"/><path d="M6 22 Q6 6 22 6" stroke-opacity="0.4"/><circle cx="0" cy="0" r="2" fill="#3b2aa8" stroke="none"/></g><g transform="translate(270 370) rotate(180)" fill="none" stroke="#3b2aa8" stroke-width="1" stroke-opacity="0.7"><path d="M0 22 Q0 0 22 0"/><path d="M6 22 Q6 6 22 6" stroke-opacity="0.4"/><circle cx="0" cy="0" r="2" fill="#3b2aa8" stroke="none"/></g><g transform="translate(30 370) rotate(270)" fill="none" stroke="#3b2aa8" stroke-width="1" stroke-opacity="0.7"><path d="M0 22 Q0 0 22 0"/><path d="M6 22 Q6 6 22 6" stroke-opacity="0.4"/><circle cx="0" cy="0" r="2" fill="#3b2aa8" stroke="none"/></g>
  <text x="150" y="58" text-anchor="middle" font-family="'Helvetica Neue', Arial, sans-serif" font-size="10.5" font-weight="600" letter-spacing="3.2" fill="#291d76" fill-opacity="0.85">HAPPY BIRTHDAY</text>
  <g transform="translate(150 180)"><path d="M0 -70 L11.91 -44.43 L35 -60.62 L32.53 -32.53 L60.62 -35 L44.43 -11.91 L70 0 L44.43 11.91 L60.62 35 L32.53 32.53 L35 60.62 L11.91 44.43 L0 70 L-11.91 44.43 L-35 60.62 L-32.53 32.53 L-60.62 35 L-44.43 11.91 L-70 0 L-44.43 -11.91 L-60.62 -35 L-32.53 -32.53 L-35 -60.62 L-11.91 -44.43 Z" fill="#f0399b"/><path d="M13.46 -50.23 L18 -31.18 L36.77 -36.77 L31.18 -18 L50.23 -13.46 L36 0 L50.23 13.46 L31.18 18 L36.77 36.77 L18 31.18 L13.46 50.23 L0 36 L-13.46 50.23 L-18 31.18 L-36.77 36.77 L-31.18 18 L-50.23 13.46 L-36 0 L-50.23 -13.46 L-31.18 -18 L-36.77 -36.77 L-18 -31.18 L-13.46 -50.23 L-0 -36 Z" fill="#c4bfe5"/><path d="M10 -46 L-22 6 L-2 6 L-12 46 L24 -8 L4 -8 Z" fill="#3b2aa8" stroke="#1b134c" stroke-width="2" stroke-linejoin="round"/></g>
  <text x="150" y="304" text-anchor="middle" font-family="Georgia, 'Times New Roman', serif" font-style="italic" font-size="28" fill="#291d76">Alya</text>
  <g fill="#3b2aa8" stroke="#3b2aa8">
    <line x1="104" y1="322" x2="140" y2="322" stroke-width="0.8" stroke-opacity="0.6"/>
    <line x1="160" y1="322" x2="196" y2="322" stroke-width="0.8" stroke-opacity="0.6"/>
    <path d="M150 317 L154 322 L150 327 L146 322 Z" stroke="none"/>
  </g>
  <text x="150" y="346" text-anchor="middle" font-family="'Helvetica Neue', Arial, sans-serif" font-size="10" letter-spacing="2.4" fill="#291d76" fill-opacity="0.7">05 . 04 . 2026</text>
</svg>