<svg xmlns="http://www.w3.org/2000/svg" viewBox="0 0 300 400" width="600" height="800">
  <defs>
    <linearGradient id="bg" x1="0" y1="0" x2="1" y2="1">
      <stop offset="0" stop-color="#eaefe7"/>
      <stop offset="1" stop-color="#c7d6c1"/>
    </linearGradient>
    <radialGradient id="glow" cx="0.5" cy="0.44" r="0.5">
      <stop offset="0" stop-color="#ffffff" stop-opacity="0.75"/>
      <stop offset="1" stop-color="#ffffff" stop-opacity="0"/>
    </radialGradient>
  </defs>
  <rect width="300" height="400" fill="url(#bg)"/>
  <circle cx="150" cy="178" r="150" fill="url(#glow)"/>
  <g><ellipse cx="198.0" cy="49.8" rx="3.3" ry="6.5" fill="#4d7c3a" fill-opacity="0.55" transform="rotate(94 198.0 49.8)"/><ellipse cx="256.8" cy="339.7" rx="2.6" ry="5.2" fill="#f9a8d4" fill-opacity="0.55" transform="rotate(168 256.8 339.7)"/><ellipse cx="33.1" cy="252.0" rx="2.0" ry="4.1" fill="#cad8c4" fill-opacity="0.55" transform="rotate(62 33.1 252.0)"/><ellipse cx="245.1" cy="262.9" rx="3.5" ry="7.0" fill="#4d7c3a" fill-opacity="0.55" transform="rotate(72 245.1 262.9)"/><ellipse cx="98.1" cy="40.2" rx="2.6" ry="5.2" fill="#f9a8d4" fill-opacity="0.55" transform="rotate(196 98.1 40.2)"/><ellipse cx="253.4" cy="193.8" rx="3.4" ry="6.8" fill="#cad8c4" fill-opacity="0.55" transform="rotate(340 253.4 193.8)"/><ellipse cx="241.2" cy="180.6" rx="3.7" ry="7.4" fill="#4d7c3a" fill-opacity="0.55" transform="rotate(129 241.2 180.6)"/><ellipse cx="267.7" cy="360.9" rx="2.1" ry="4.3" fill="#f9a8d4" fill-opacity="0.55" transform="rotate(21 267.7 360.9)"/><ellipse cx="245.1" cy="204.6" rx="3.9" ry="7.8" fill="#cad8c4" fill-opacity="0.55" transform="rotate(231 245.1 204.6)"/><ellipse cx="242.8" cy="309.2" rx="2.6" ry="5.1" fill="#4d7c3a" fill-opacity="0.55" transform="rotate(38 242.8 309.2)"/><ellipse cx="61.1" cy="202.2" rx="2.7" ry="5.4" fill="#f9a8d4" fill-opacity="0.55" transform="rotate(262 61.1 202.2)"/><ellipse cx="267.8" cy="61.1" rx="3.2" ry="6.4" fill="#cad8c4" fill-opacity="0.55" transform="rotate(46 267.8 61.1)"/><ellipse cx="55.9" cy="331.8" rx="2.9" ry="5.9" fill="#4d7c3a" fill-opacity="0.55" transform="rotate(155 55.9 331.8)"/><ellipse cx="36.8" cy="110.1" rx="3.9" ry="7.9" fill="#f9a8d4" fill-opacity="0.55" transform="rotate(340 36.8 110.1)"/><ellipse cx="35.1" cy="117.4" rx="2.2" ry="4.4" fill="#cad8c4" fill-opacity="0.55" transform="rotate(221 35.1 117.4)"/><ellipse cx="249.7" cy="210.5" rx="1.9" ry="3.8" fill="#4d7c3a" fill-opacity="0.55" transform="rotate(136 249.7 210.5)"/><ellipse cx="136.1" cy="67.1" rx="2.5" ry="5.0" fill="#f9a8d4" fill-opacity="0.55" transform="rotate(352 136.1 67.1)"/><ellipse cx="151.0" cy="367.9" rx="3.0" ry="6.1" fill="#cad8c4" fill-opacity="0.55" transform="rotate(285 151.0 367.9)"/><ellipse cx="34.2" cy="224.2" rx="2.3" ry="4.6" fill="#4d7c3a" fill-opacity="0.55" transform="rotate(157 34.2 224.2)"/><ellipse cx="59.7" cy="149.9" rx="4.0" ry="8.0" fill="#f9a8d4" fill-opacity="0.55" transform="rotate(318 59.7 149.9)"/><ellipse cx="40.6" cy="242.2" rx="3.9" ry="7.9" fill="#cad8c4" fill-opacity="0.55" transform="rotate(310 40.6 242.2)"/><ellipse cx="33.2" cy="212.1" rx="1.9" ry="3.8" fill="#4d7c3a" fill-opacity="0.55" transform="rotate(278 33.2 212.1)"/></g>
  <rect x="14" y="14" width="272" height="372" rx="16" fill="none" stroke="#4d7c3a" stroke-opacity="0.55" stroke-width="1.4"/>
  <rect x="21" y="21" width="258" height="358" rx="12" fill="none" stroke="#4d7c3a" stroke-opacity="0.3" stroke-width="0.7"/>
  <g transform="translate(30 30) rotate(0)" fill="none" stroke="#4d7c3a" stroke-width="1" stroke-opacity="0.7"><path d="M0 22 Q0 0 22 0"/><path d="M6 22 Q6 6 22 6" stroke-opacity="0.4"/><circle cx="0" cy="0" r="2" fill="#4d7c3a" stroke="none"/></g><g transform="translate(270 30) rotate(90)" fill="none" stroke="#4d7c3a" stroke-width="1" stroke-opacity="0.7"><path d="M0 22 Q0 0 22 0"/><path d="M6 22 Q6 6 22 6" stroke-opacity="0.4"/><circle cx="0" cy="0" r="2" fill="#4d7c3a" stroke="none"/></g><g transform="translate(270 370) rotate(180)" fill="none" stroke="#4d7c3a" stroke-width="1" stroke-opacity="0.7"><path d="M0 22 Q0 0 22 0"/><path d="M6 22 Q6 6 22 6" stroke-opacity="0.4"/><circle cx="0" cy="0" r="2" fill="#4d7c3a" stroke="none"/></g><g transform="translate(30 370) rotate(270)" fill="none" stroke="#4d7c3a" stroke-width="1" stroke-opacity="0.7"><path d="M0 22 Q0 0 22 0"/><path d="M6 22 Q6 6 22 6" stroke-opacity="0.4"/><circle cx="0" cy="0" r="2" fill="#4d7c3a" stroke="none"/></g>
  <text x="150" y="58" text-anchor="middle" font-family="'Helvetica Neue', Arial, sans-serif" font-size="10.5" font-weight="600" letter-spacing="3.2" fill="#365729" fill-opacity="0.85">GENDER REVEAL</text>
  <g transform="translate(150 180)"><path d="M0 0 Q17.48 -23 0 -46 Q-17.48 -23 0 0 Z" fill="#588746" fill-opacity="0.9" transform="translate(-20 40) rotate(-40)"/><path d="M0 0 Q17.48 -23 0 -46 Q-17.48 -23 0 0 Z" fill="#588746" fill-opacity="0.9" transform="translate(22 40) rotate(42)"/><path d="M0 0 Q11.4 -15 0 -30 Q-11.4 -15 0 0 Z" fill="#588746" fill-opacity="0.8" transform="translate(-58 34) rotate(-80)"/><path d="M0 0 Q11.4 -15 0 -30 Q-11.4 -15 0 0 Z" fill="#588746" fill-opacity="0.8" transform="translate(58 30) rotate(80)"/><g transform="translate(0 -8)"><ellipse cx="0" cy="-30" rx="18" ry="30" fill="#4d7c3a" fill-opacity="0.92" transform="rotate(0)"/><ellipse cx="0" cy="-30" rx="18" ry="30" fill="#4d7c3a" fill-opacity="0.92" transform="rotate(60)"/><ellipse cx="0" cy="-30" rx="18" ry="30" fill="#4d7c3a" fill-opacity="0.92" transform="rotate(120)"/><ellipse cx="0" cy="-30" rx="18" ry="30" fill="#4d7c3a" fill-opacity="0.92" transform="rotate(180)"/><ellipse cx="0" cy="-30" rx="18" ry="30" fill="#4d7c3a" fill-opacity="0.92" transform="rotate(240)"/><ellipse cx="0" cy="-30" rx="18" ry="30" fill="#4d7c3a" fill-opacity="0.92" transform="rotate(300)"/><circle r="13.2" fill="#f9a8d4"/></g><g transform="translate(0 -8)"><ellipse cx="0" cy="-16" rx="9.6" ry="16" fill="#cad8c4" fill-opacity="0.92" transform="rotate(0)"/><ellipse cx="0" cy="-16" rx="9.6" ry="16" fill="#cad8c4" fill-opacity="0.92" transform="rotate(60)"/><ellipse cx="0" cy="-16" rx="9.6" ry="16" fill="#cad8c4" fill-opacity="0.92" transform="rotate(120)"/><ellipse cx="0" cy="-16" rx="9.6" ry="16" fill="#cad8c4" fill-opacity="0.92" transform="rotate(180)"/><ellipse cx="0" cy="-16" rx="9.6" ry="16" fill="#cad8c4" fill-opacity="0.92" transform="rotate(240)"/><ellipse cx="0" cy="-16" rx="9.6" ry="16" fill="#cad8c4" fill-opacity="0.92" transform="rotate(300)"/><circle r="7.04" fill="#4d7c3a"/></g><g transform="translate(-54 22)"><ellipse cx="0" cy="-15" rx="9" ry="15" fill="#f9a8d4" fill-opacity="0.92" transform="rotate(0)"/><ellipse cx="0" cy="-15" rx="9" ry="15" fill="#f9a8d4" fill-opacity="0.92" transform="rotate(72)"/><ellipse cx="0" cy="-15" rx="9" ry="15" fill="#f9a8d4" fill-opacity="0.92" transform="rotate(144)"/><ellipse cx="0" cy="-15" rx="9" ry="15" fill="#f9a8d4" fill-opacity="0.92" transform="rotate(216)"/><ellipse cx="0" cy="-15" rx="9" ry="15" fill="#f9a8d4" fill-opacity="0.92" transform="rotate(288)"/><circle r="6.6" fill="#4d7c3a"/></g><g transform="translate(54 18)"><ellipse cx="0" cy="-17" rx="10.2" ry="17" fill="#f9a8d4" fill-opacity="0.92" transform="rotate(0)"/><ellipse cx="0" cy="-17" rx="10.2" ry="17" fill="#f9a8d4" fill-opacity="0.92" transform="rotate(72)"/><ellipse cx="0" cy="-17" rx="10.2" ry="17" fill="#f9a8d4" fill-opacity="0.92" transform="rotate(144)"/><ellipse cx="0" cy="-17" rx="10.2" ry="17" fill="#f9a8d4" fill-opacity="0.92" transform="rotate(216)"/><ellipse cx="0" cy="-17" rx="10.2" ry="17" fill="#f9a8d4" fill-opacity="0.92" transform="rotate(288)"/><circle r="7.48" fill="#4d7c3a"/></g></g>
  <text x="150" y="304" text-anchor="middle" font-family="Georgia, 'Times New Roman', serif" font-style="italic" font-size="28" fill="#365729">He or She?</text>
  <g fill="#4d7c3a" stroke="#4d7c3a">
    <line x1="104" y1="322" x2="140" y2="322" stroke-width="0.8" stroke-opacity="0.6"/>
    <line x1="160" y1="322" x2="196" y2="322" stroke-width="0.8" stroke-opacity="0.6"/>
    <path d="M150 317 L154 322 L150 327 L146 322 Z" stroke="none"/>
  </g>
  <text x="150" y="346" text-anchor="middle" font-family="'Helvetica Neue', Arial, sans-serif" font-size="10" letter-spacing="2.4" fill="#365729" fill-opacity="0.7">05 . 04 . 2026</text>
</svg>