<svg xmlns="http://www.w3.org/2000/svg" viewBox="0 0 300 400" width="600" height="800">
  <defs>
    <linearGradient id="bg" x1="0" y1="0" x2="1" y2="1">
      <stop offset="0" stop-color="#fde9f3"/>
      <stop offset="1" stop-color="#f9c6df"/>
    </linearGradient>
    <radialGradient id="glow" cx="0.5" cy="0.44" r="0.5">
      <stop offset="0" stop-color="#ffffff" stop-opacity="0.75"/>
      <stop offset="1" stop-color="#ffffff" stop-opacity="0"/>
    </radialGradient>
  </defs>
  <rect width="300" height="400" fill="url(#bg)"/>
  <circle cx="150" cy="178" r="150" fill="url(#glow)"/>
  <g><circle cx="266.2" cy="245.4" r="3.0" fill="#ec4899" fill-opacity="0.7"/><rect x="260.6" y="43.6" width="3.1" height="8.4" rx="1" fill="#60a5fa" fill-opacity="0.75" transform="rotate(55 260.6 43.6)"/><circle cx="149.8" cy="31.7" r="2.8" fill="#f9c8e0" fill-opacity="0.7"/><rect x="265.6" y="97.0" width="2.7" height="7.1" rx="1" fill="#ec4899" fill-opacity="0.75" transform="rotate(143 265.6 97.0)"/><circle cx="258.2" cy="260.3" r="2.8" fill="#60a5fa" fill-opacity="0.7"/><rect x="115.6" y="38.5" width="3.4" height="9.1" rx="1" fill="#f9c8e0" fill-opacity="0.75" transform="rotate(276 115.6 38.5)"/><circle cx="112.4" cy="64.0" r="1.8" fill="#ec4899" fill-opacity="0.7"/><rect x="65.8" y="368.8" width="2.3" height="6.2" rx="1" fill="#60a5fa" fill-opacity="0.75" transform="rotate(149 65.8 368.8)"/><circle cx="233.7" cy="39.2" r="3.1" fill="#f9c8e0" fill-opacity="0.7"/><rect x="31.6" y="157.6" width="3.2" height="8.5" rx="1" fill="#ec4899" fill-opacity="0.75" transform="rotate(231 31.6 157.6)"/><circle cx="187.6" cy="39.8" r="3.2" fill="#60a5fa" fill-opacity="0.7"/><rect x="239.8" y="39.1" width="2.5" height="6.8" rx="1" fill="#f9c8e0" fill-opacity="0.75" transform="rotate(152 239.8 39.1)"/><circle cx="33.8" cy="59.2" r="3.2" fill="#ec4899" fill-opacity="0.7"/><rect x="259.9" y="307.0" width="3.8" height="10.3" rx="1" fill="#60a5fa" fill-opacity="0.75" transform="rotate(24 259.9 307.0)"/><circle cx="242.2" cy="134.5" r="1.8" fill="#f9c8e0" fill-opacity="0.7"/><rect x="230.4" y="68.5" width="3.5" height="9.4" rx="1" fill="#ec4899" fill-opacity="0.75" transform="rotate(273 230.4 68.5)"/><circle cx="95.1" cy="54.6" r="2.6" fill="#60a5fa" fill-opacity="0.7"/><rect x="57.5" y="128.4" width="2.4" height="6.3" rx="1" fill="#f9c8e0" fill-opacity="0.75" transform="rotate(245 57.5 128.4)"/><circle cx="150.9" cy="35.0" r="3.5" fill="#ec4899" fill-opacity="0.7"/><rect x="38.2" y="218.0" width="2.8" height="7.4" rx="1" fill="#60a5fa" fill-opacity="0.75" transform="rotate(7 38.2 218.0)"/><circle cx="161.4" cy="37.8" r="2.0" fill="#f9c8e0" fill-opacity="0.7"/><rect x="251.1" y="188.1" width="2.6" height="6.9" rx="1" fill="#ec4899" fill-opacity="0.75" transform="rotate(312 251.1 188.1)"/></g>
  <rect x="14" y="14" width="272" height="372" rx="16" fill="none" stroke="#ec4899" stroke-opacity="0.55" stroke-width="1.4"/>
  <rect x="21" y="21" width="258" height="358" rx="12" fill="none" stroke="#ec4899" stroke-opacity="0.3" stroke-width="0.7"/>
  <g transform="translate(30 30) rotate(0)" fill="none" stroke="#ec4899" stroke-width="1" stroke-opacity="0.7"><path d="M0 22 Q0 0 22 0"/><path d="M6 22 Q6 6 22 6" stroke-opacity="0.4"/><circle cx="0" cy="0" r="2" fill="#ec4899" stroke="none"/></g><g transform="translate(270 30) rotate(90)" fill="none" stroke="#ec4899" stroke-width="1" stroke-opacity="0.7"><path d="M0 22 Q0 0 22 0"/><path d="M6 22 Q6 6 22 6" stroke-opacity="0.4"/><circle cx="0" cy="0" r="2" fill="#ec4899" stroke="none"/></g><g transform="translate(270 370) rotate(180)" fill="none" stroke="#ec4899" stroke-width="1" stroke-opacity="0.7"><path d="M0 22 Q0 0 22 0"/><path d="M6 22 Q6 6 22 6" stroke-opacity="0.4"/><circle cx="0" cy="0" r="2" fill="#ec4899" stroke="none"/></g><g transform="translate(30 370) rotate(270)" fill="none" stroke="#ec4899" stroke-width="1" stroke-opacity="0.7"><path d="M0 22 Q0 0 22 0"/><path d="M6 22 Q6 6 22 6" stroke-opacity="0.4"/><circle cx="0" cy="0" r="2" fill="#ec4899" stroke="none"/></g>
  <text x="150" y="58" text-anchor="middle" font-family="'Helvetica Neue', Arial, sans-serif" font-size="10.5" font-weight="600" letter-spacing="3.2" fill="#a5326b" fill-opacity="0.85">GENDER REVEAL</text>
  <g transform="translate(150 180)"><path d="M-40 60 L-10 -10 L20 20 Z" fill="#ec4899"/><path d="M-30 37 L-3 5 M-20 50 L7 12" stroke="#f9c8e0" stroke-width="4"/><circle cx="-0.2" cy="-24.5" r="4" fill="#ec4899"/><rect x="4.2" y="-39" width="4" height="10" rx="1" fill="#60a5fa" transform="rotate(37 4.2 -39)"/><circle cx="13.1" cy="-52.4" r="4" fill="#f9c8e0"/><rect x="26.1" y="-63.9" width="4" height="10" rx="1" fill="#ec4899" transform="rotate(111 26.1 -63.9)"/><circle cx="18.2" cy="-22" r="4" fill="#60a5fa"/><rect x="30.2" y="-31" width="4" height="10" rx="1" fill="#f9c8e0" transform="rotate(185 30.2 -31)"/><circle cx="45.3" cy="-36.7" r="4" fill="#ec4899"/><rect x="62.5" y="-38.3" width="4" height="10" rx="1" fill="#60a5fa" transform="rotate(259 62.5 -38.3)"/><circle cx="31.5" cy="-9.1" r="4" fill="#f9c8e0"/><rect x="46.6" y="-9.3" width="4" height="10" rx="1" fill="#ec4899" transform="rotate(333 46.6 -9.3)"/><circle cx="62.1" cy="-5.1" r="4" fill="#60a5fa"/><rect x="77" y="3.7" width="4" height="10" rx="1" fill="#f9c8e0" transform="rotate(407 77 3.7)"/><circle cx="34.7" cy="9.2" r="4" fill="#ec4899"/><rect x="47.1" y="17.9" width="4" height="10" rx="1" fill="#60a5fa" transform="rotate(481 47.1 17.9)"/><circle cx="57.1" cy="30.4" r="4" fill="#f9c8e0"/><rect x="64" y="46.3" width="4" height="10" rx="1" fill="#ec4899" transform="rotate(555 64 46.3)"/><path d="M50 -50 L52.35 -43.24 L59.51 -43.09 L53.8 -38.76 L55.88 -31.91 L50 -36 L44.12 -31.91 L46.2 -38.76 L40.49 -43.09 L47.65 -43.24 Z" fill="#ec4899"/></g>
  <text x="150" y="304" text-anchor="middle" font-family="Georgia, 'Times New Roman', serif" font-style="italic" font-size="28" fill="#a5326b">Boy or Girl?</text>
  <g fill="#ec4899" stroke="#ec4899">
    <line x1="104" y1="322" x2="140" y2="322" stroke-width="0.8" stroke-opacity="0.6"/>
    <line x1="160" y1="322" x2="196" y2="322" stroke-width="0.8" stroke-opacity="0.6"/>
    <path d="M150 317 L154 322 L150 327 L146 322 Z" stroke="none"/>
  </g>
  <text x="150" y="346" text-anchor="middle" font-family="'Helvetica Neue', Arial, sans-serif" font-size="10" letter-spacing="2.4" fill="#a5326b" fill-opacity="0.7">08 . 08 . 2026</text>
</svg>