<svg xmlns="http://www.w3.org/2000/svg" viewBox="0 0 300 400" width="600" height="800">
  <defs>
    <linearGradient id="bg" x1="0" y1="0" x2="1" y2="1">
      <stop offset="0" stop-color="#ecf0f5"/>
      <stop offset="1" stop-color="#bfc9e6"/>
    </linearGradient>
    <radialGradient id="glow" cx="0.5" cy="0.44" r="0.5">
      <stop offset="0" stop-color="#ffffff" stop-opacity="0.75"/>
      <stop offset="1" stop-color="#ffffff" stop-opacity="0"/>
    </radialGradient>
  </defs>
  <rect width="300" height="400" fill="url(#bg)"/>
  <circle cx="150" cy="178" r="150" fill="url(#glow)"/>
  <g><circle cx="43.9" cy="360.6" r="3.3" fill="#1e40af" fill-opacity="0.7"/><rect x="196.4" y="48.0" width="2.8" height="7.4" rx="1" fill="#8396d3" fill-opacity="0.75" transform="rotate(34 196.4 48.0)"/><circle cx="58.1" cy="223.2" r="3.6" fill="#bcc6e7" fill-opacity="0.7"/><rect x="113.6" y="45.9" width="2.4" height="6.4" rx="1" fill="#1e40af" fill-opacity="0.75" transform="rotate(202 113.6 45.9)"/><circle cx="92.6" cy="32.0" r="1.9" fill="#8396d3" fill-opacity="0.7"/><rect x="259.2" y="239.5" width="3.4" height="9.0" rx="1" fill="#bcc6e7" fill-opacity="0.75" transform="rotate(162 259.2 239.5)"/><circle cx="38.5" cy="131.4" r="3.5" fill="#1e40af" fill-opacity="0.7"/><rect x="47.7" y="200.1" width="4.1" height="10.9" rx="1" fill="#8396d3" fill-opacity="0.75" transform="rotate(31 47.7 200.1)"/><circle cx="57.1" cy="176.8" r="1.7" fill="#bcc6e7" fill-opacity="0.7"/><rect x="42.4" y="215.0" width="3.2" height="8.7" rx="1" fill="#1e40af" fill-opacity="0.75" transform="rotate(87 42.4 215.0)"/><circle cx="240.9" cy="147.9" r="1.7" fill="#8396d3" fill-opacity="0.7"/><rect x="39.0" y="219.6" width="3.9" height="10.5" rx="1" fill="#bcc6e7" fill-opacity="0.75" transform="rotate(310 39.0 219.6)"/><circle cx="260.3" cy="271.4" r="3.2" fill="#1e40af" fill-opacity="0.7"/><rect x="249.5" y="225.6" width="2.5" height="6.7" rx="1" fill="#8396d3" fill-opacity="0.75" transform="rotate(270 249.5 225.6)"/><circle cx="257.9" cy="332.7" r="3.4" fill="#bcc6e7" fill-opacity="0.7"/><rect x="246.7" y="253.4" width="2.6" height="7.0" rx="1" fill="#1e40af" fill-opacity="0.75" transform="rotate(174 246.7 253.4)"/><circle cx="47.0" cy="66.6" r="3.3" fill="#8396d3" fill-opacity="0.7"/><rect x="100.5" y="33.0" width="2.8" height="7.5" rx="1" fill="#bcc6e7" fill-opacity="0.75" transform="rotate(171 100.5 33.0)"/><circle cx="158.1" cy="362.2" r="3.4" fill="#1e40af" fill-opacity="0.7"/><rect x="265.6" y="192.0" width="3.1" height="8.2" rx="1" fill="#8396d3" fill-opacity="0.75" transform="rotate(160 265.6 192.0)"/><circle cx="56.7" cy="323.7" r="3.0" fill="#bcc6e7" fill-opacity="0.7"/><rect x="36.4" y="233.3" width="4.1" height="10.8" rx="1" fill="#1e40af" fill-opacity="0.75" transform="rotate(51 36.4 233.3)"/></g>
  <rect x="14" y="14" width="272" height="372" rx="16" fill="none" stroke="#1e40af" stroke-opacity="0.55" stroke-width="1.4"/>
  <rect x="21" y="21" width="258" height="358" rx="12" fill="none" stroke="#1e40af" stroke-opacity="0.3" stroke-width="0.7"/>
  <g transform="translate(30 30) rotate(0)" fill="none" stroke="#1e40af" stroke-width="1" stroke-opacity="0.7"><path d="M0 22 Q0 0 22 0"/><path d="M6 22 Q6 6 22 6" stroke-opacity="0.4"/><circle cx="0" cy="0" r="2" fill="#1e40af" stroke="none"/></g><g transform="translate(270 30) rotate(90)" fill="none" stroke="#1e40af" stroke-width="1" stroke-opacity="0.7"><path d="M0 22 Q0 0 22 0"/><path d="M6 22 Q6 6 22 6" stroke-opacity="0.4"/><circle cx="0" cy="0" r="2" fill="#1e40af" stroke="none"/></g><g transform="translate(270 370) rotate(180)" fill="none" stroke="#1e40af" stroke-width="1" stroke-opacity="0.7"><path d="M0 22 Q0 0 22 0"/><path d="M6 22 Q6 6 22 6" stroke-opacity="0.4"/><circle cx="0" cy="0" r="2" fill="#1e40af" stroke="none"/></g><g transform="translate(30 370) rotate(270)" fill="none" stroke="#1e40af" stroke-width="1" stroke-opacity="0.7"><path d="M0 22 Q0 0 22 0"/><path d="M6 22 Q6 6 22 6" stroke-opacity="0.4"/><circle cx="0" cy="0" r="2" fill="#1e40af" stroke="none"/></g>
  <text x="150" y="58" text-anchor="middle" font-family="'Helvetica Neue', Arial, sans-serif" font-size="10.5" font-weight="600" letter-spacing="3.2" fill="#152d7b" fill-opacity="0.85">WALIMATUL KHITAN</text>
  <g transform="translate(150 180)"><path d="M-36 -40 Q-66 -40 -58 -12 Q-52 6 -26 8 M36 -40 Q66 -40 58 -12 Q52 6 26 8" fill="none" stroke="#1e40af" stroke-width="6"/><path d="M-40 -52 L40 -52 L36 -10 Q30 20 0 24 Q-30 20 -36 -10 Z" fill="#1e40af"/><rect x="-7" y="22" width="14" height="18" fill="#1e40af"/><rect x="-30" y="40" width="60" height="10" rx="2" fill="#8396d3"/><rect x="-38" y="50" width="76" height="12" rx="2" fill="#0e1d4f"/><path d="M0 -36 L4.11 -25.66 L15.22 -24.94 L6.66 -17.84 L9.4 -7.06 L0 -13 L-9.4 -7.06 L-6.66 -17.84 L-15.22 -24.94 L-4.11 -25.66 Z" fill="#bcc6e7"/></g>
  <text x="150" y="304" text-anchor="middle" font-family="Georgia, 'Times New Roman', serif" font-style="italic" font-size="28" fill="#152d7b">Alfarizi</text>
  <g fill="#1e40af" stroke="#1e40af">
    <line x1="104" y1="322" x2="140" y2="322" stroke-width="0.8" stroke-opacity="0.6"/>
    <line x1="160" y1="322" x2="196" y2="322" stroke-width="0.8" stroke-opacity="0.6"/>
    <path d="M150 317 L154 322 L150 327 L146 322 Z" stroke="none"/>
  </g>
  <text x="150" y="346" text-anchor="middle" font-family="'Helvetica Neue', Arial, sans-serif" font-size="10" letter-spacing="2.4" fill="#152d7b" fill-opacity="0.7">20 . 06 . 2026</text>
</svg>