<svg xmlns="http://www.w3.org/2000/svg" viewBox="0 0 300 400" width="600" height="800">
  <defs>
    <linearGradient id="bg" x1="0" y1="0" x2="1" y2="1">
      <stop offset="0" stop-color="#fef9f3"/>
      <stop offset="1" stop-color="#f2e7d6"/>
    </linearGradient>
    <radialGradient id="glow" cx="0.5" cy="0.44" r="0.5">
      <stop offset="0" stop-color="#ffffff" stop-opacity="0.75"/>
      <stop offset="1" stop-color="#ffffff" stop-opacity="0"/>
    </radialGradient>
  </defs>
  <rect width="300" height="400" fill="url(#bg)"/>
  <circle cx="150" cy="178" r="150" fill="url(#glow)"/>
  <g><circle cx="32.7" cy="270.4" r="2.4" fill="#c8a96e" fill-opacity="0.5"/><circle cx="53.7" cy="274.9" r="2.9" fill="#e1d0af" fill-opacity="0.5"/><circle cx="262.1" cy="244.4" r="1.4" fill="#efe5d4" fill-opacity="0.5"/><circle cx="49.5" cy="367.0" r="2.2" fill="#c8a96e" fill-opacity="0.5"/><circle cx="46.8" cy="195.2" r="3.0" fill="#e1d0af" fill-opacity="0.5"/><circle cx="255.1" cy="288.5" r="1.6" fill="#efe5d4" fill-opacity="0.5"/><circle cx="58.8" cy="201.0" r="2.6" fill="#c8a96e" fill-opacity="0.5"/><circle cx="240.3" cy="193.5" r="2.5" fill="#e1d0af" fill-opacity="0.5"/><circle cx="243.7" cy="134.2" r="2.9" fill="#efe5d4" fill-opacity="0.5"/><circle cx="239.3" cy="193.6" r="2.8" fill="#c8a96e" fill-opacity="0.5"/><circle cx="42.1" cy="39.8" r="2.5" fill="#e1d0af" fill-opacity="0.5"/><circle cx="238.2" cy="46.5" r="1.8" fill="#efe5d4" fill-opacity="0.5"/><circle cx="229.0" cy="66.4" r="1.6" fill="#c8a96e" fill-opacity="0.5"/><circle cx="54.3" cy="350.4" r="3.0" fill="#e1d0af" fill-opacity="0.5"/><circle cx="234.5" cy="55.4" r="1.5" fill="#efe5d4" fill-opacity="0.5"/><circle cx="160.4" cy="369.5" r="2.1" fill="#c8a96e" fill-opacity="0.5"/><circle cx="265.6" cy="108.1" r="2.5" fill="#e1d0af" fill-opacity="0.5"/><circle cx="36.8" cy="156.5" r="2.8" fill="#efe5d4" fill-opacity="0.5"/><circle cx="250.7" cy="114.1" r="2.9" fill="#c8a96e" fill-opacity="0.5"/><circle cx="35.8" cy="91.8" r="2.9" fill="#e1d0af" fill-opacity="0.5"/><circle cx="209.4" cy="52.9" r="2.4" fill="#efe5d4" fill-opacity="0.5"/><circle cx="60.4" cy="289.4" r="1.4" fill="#c8a96e" fill-opacity="0.5"/></g>
  <rect x="14" y="14" width="272" height="372" rx="16" fill="none" stroke="#c8a96e" stroke-opacity="0.55" stroke-width="1.4"/>
  <rect x="21" y="21" width="258" height="358" rx="12" fill="none" stroke="#c8a96e" stroke-opacity="0.3" stroke-width="0.7"/>
  <g transform="translate(30 30) rotate(0)" fill="none" stroke="#c8a96e" stroke-width="1" stroke-opacity="0.7"><path d="M0 22 Q0 0 22 0"/><path d="M6 22 Q6 6 22 6" stroke-opacity="0.4"/><circle cx="0" cy="0" r="2" fill="#c8a96e" stroke="none"/></g><g transform="translate(270 30) rotate(90)" fill="none" stroke="#c8a96e" stroke-width="1" stroke-opacity="0.7"><path d="M0 22 Q0 0 22 0"/><path d="M6 22 Q6 6 22 6" stroke-opacity="0.4"/><circle cx="0" cy="0" r="2" fill="#c8a96e" stroke="none"/></g><g transform="translate(270 370) rotate(180)" fill="none" stroke="#c8a96e" stroke-width="1" stroke-opacity="0.7"><path d="M0 22 Q0 0 22 0"/><path d="M6 22 Q6 6 22 6" stroke-opacity="0.4"/><circle cx="0" cy="0" r="2" fill="#c8a96e" stroke="none"/></g><g transform="translate(30 370) rotate(270)" fill="none" stroke="#c8a96e" stroke-width="1" stroke-opacity="0.7"><path d="M0 22 Q0 0 22 0"/><path d="M6 22 Q6 6 22 6" stroke-opacity="0.4"/><circle cx="0" cy="0" r="2" fill="#c8a96e" stroke="none"/></g>
  <text x="150" y="58" text-anchor="middle" font-family="'Helvetica Neue', Arial, sans-serif" font-size="10.5" font-weight="600" letter-spacing="3.2" fill="#8c764d" fill-opacity="0.85">TASYAKURAN</text>
  <g transform="translate(150 180)"><g transform="translate(-10 -30) scale(1.3 1.3)"><ellipse rx="22" ry="13" fill="#c8a96e"/><path d="M18 0 L36 -12 L36 12 Z" fill="#c8a96e"/><circle cx="-11" cy="-3" r="3" fill="#ffffff"/><circle cx="-11" cy="-3" r="1.4" fill="#5a4c31"/></g><g transform="translate(40 6) scale(-0.9 0.9)"><ellipse rx="22" ry="13" fill="#e1d0af"/><path d="M18 0 L36 -12 L36 12 Z" fill="#e1d0af"/><circle cx="-11" cy="-3" r="3" fill="#ffffff"/><circle cx="-11" cy="-3" r="1.4" fill="#5a4c31"/></g><g transform="translate(-45 12) scale(-0.7 0.7)"><ellipse rx="22" ry="13" fill="#efe5d4"/><path d="M18 0 L36 -12 L36 12 Z" fill="#efe5d4"/><circle cx="-11" cy="-3" r="3" fill="#ffffff"/><circle cx="-11" cy="-3" r="1.4" fill="#5a4c31"/></g><circle cx="-40" cy="-55" r="4" fill="none" stroke="#c8a96e"/><circle cx="-34" cy="-66" r="3" fill="none" stroke="#c8a96e"/><path d="M-80 40 Q-60 30 -40 40 T0 40 T40 40 T80 40" fill="none" stroke="#c8a96e" stroke-width="4" stroke-linecap="round" stroke-opacity="0.8"/><path d="M-80 50 Q-60 40 -40 50 T0 50 T40 50 T80 50" fill="none" stroke="#e1d0af" stroke-width="4" stroke-linecap="round" stroke-opacity="0.7"/></g>
  <text x="150" y="304" text-anchor="middle" font-family="Georgia, 'Times New Roman', serif" font-style="italic" font-size="28" fill="#8c764d">Kel. Hadi</text>
  <g fill="#c8a96e" stroke="#c8a96e">
    <line x1="104" y1="322" x2="140" y2="322" stroke-width="0.8" stroke-opacity="0.6"/>
    <line x1="160" y1="322" x2="196" y2="322" stroke-width="0.8" stroke-opacity="0.6"/>
    <path d="M150 317 L154 322 L150 327 L146 322 Z" stroke="none"/>
  </g>
  <text x="150" y="346" text-anchor="middle" font-family="'Helvetica Neue', Arial, sans-serif" font-size="10" letter-spacing="2.4" fill="#8c764d" fill-opacity="0.7">12 . 12 . 2026</text>
</svg>