<svg xmlns="http://www.w3.org/2000/svg" viewBox="0 0 300 400" width="600" height="800">
  <defs>
    <linearGradient id="bg" x1="0" y1="0" x2="1" y2="1">
      <stop offset="0" stop-color="#fefaf7"/>
      <stop offset="1" stop-color="#efe4d4"/>
    </linearGradient>
    <radialGradient id="glow" cx="0.5" cy="0.44" r="0.5">
      <stop offset="0" stop-color="#ffffff" stop-opacity="0.75"/>
      <stop offset="1" stop-color="#ffffff" stop-opacity="0"/>
    </radialGradient>
  </defs>
  <rect width="300" height="400" fill="url(#bg)"/>
  <circle cx="150" cy="178" r="150" fill="url(#glow)"/>
  <g><ellipse cx="110.4" cy="54.0" rx="2.2" ry="4.3" fill="#b8975a" fill-opacity="0.55" transform="rotate(225 110.4 54.0)"/><ellipse cx="54.0" cy="118.6" rx="2.8" ry="5.6" fill="#d8c6a4" fill-opacity="0.55" transform="rotate(8 54.0 118.6)"/><ellipse cx="116.9" cy="51.7" rx="2.3" ry="4.6" fill="#eae0ce" fill-opacity="0.55" transform="rotate(131 116.9 51.7)"/><ellipse cx="61.0" cy="157.0" rx="2.8" ry="5.5" fill="#b8975a" fill-opacity="0.55" transform="rotate(284 61.0 157.0)"/><ellipse cx="159.6" cy="364.7" rx="1.9" ry="3.9" fill="#d8c6a4" fill-opacity="0.55" transform="rotate(197 159.6 364.7)"/><ellipse cx="168.9" cy="65.8" rx="4.0" ry="7.9" fill="#eae0ce" fill-opacity="0.55" transform="rotate(221 168.9 65.8)"/><ellipse cx="215.1" cy="63.8" rx="3.7" ry="7.4" fill="#b8975a" fill-opacity="0.55" transform="rotate(302 215.1 63.8)"/><ellipse cx="268.6" cy="204.3" rx="3.1" ry="6.1" fill="#d8c6a4" fill-opacity="0.55" transform="rotate(258 268.6 204.3)"/><ellipse cx="172.3" cy="50.0" rx="4.1" ry="8.3" fill="#eae0ce" fill-opacity="0.55" transform="rotate(136 172.3 50.0)"/><ellipse cx="103.4" cy="361.2" rx="3.2" ry="6.4" fill="#b8975a" fill-opacity="0.55" transform="rotate(290 103.4 361.2)"/><ellipse cx="83.8" cy="369.2" rx="2.3" ry="4.6" fill="#d8c6a4" fill-opacity="0.55" transform="rotate(358 83.8 369.2)"/><ellipse cx="57.6" cy="74.1" rx="3.2" ry="6.5" fill="#eae0ce" fill-opacity="0.55" transform="rotate(82 57.6 74.1)"/><ellipse cx="40.0" cy="209.5" rx="3.7" ry="7.4" fill="#b8975a" fill-opacity="0.55" transform="rotate(211 40.0 209.5)"/><ellipse cx="243.2" cy="320.4" rx="3.2" ry="6.4" fill="#d8c6a4" fill-opacity="0.55" transform="rotate(79 243.2 320.4)"/><ellipse cx="51.8" cy="208.5" rx="3.3" ry="6.7" fill="#eae0ce" fill-opacity="0.55" transform="rotate(230 51.8 208.5)"/><ellipse cx="41.1" cy="343.6" rx="2.2" ry="4.4" fill="#b8975a" fill-opacity="0.55" transform="rotate(343 41.1 343.6)"/><ellipse cx="43.9" cy="182.1" rx="3.7" ry="7.5" fill="#d8c6a4" fill-opacity="0.55" transform="rotate(103 43.9 182.1)"/><ellipse cx="47.8" cy="229.8" rx="3.3" ry="6.6" fill="#eae0ce" fill-opacity="0.55" transform="rotate(19 47.8 229.8)"/><ellipse cx="153.8" cy="42.3" rx="2.1" ry="4.2" fill="#b8975a" fill-opacity="0.55" transform="rotate(320 153.8 42.3)"/><ellipse cx="171.8" cy="67.0" rx="1.9" ry="3.7" fill="#d8c6a4" fill-opacity="0.55" transform="rotate(316 171.8 67.0)"/><ellipse cx="30.3" cy="335.3" rx="3.3" ry="6.5" fill="#eae0ce" fill-opacity="0.55" transform="rotate(217 30.3 335.3)"/><ellipse cx="93.9" cy="34.6" rx="2.4" ry="4.8" fill="#b8975a" fill-opacity="0.55" transform="rotate(236 93.9 34.6)"/></g>
  <rect x="14" y="14" width="272" height="372" rx="16" fill="none" stroke="#b8975a" stroke-opacity="0.55" stroke-width="1.4"/>
  <rect x="21" y="21" width="258" height="358" rx="12" fill="none" stroke="#b8975a" stroke-opacity="0.3" stroke-width="0.7"/>
  <g transform="translate(30 30) rotate(0)" fill="none" stroke="#b8975a" stroke-width="1" stroke-opacity="0.7"><path d="M0 22 Q0 0 22 0"/><path d="M6 22 Q6 6 22 6" stroke-opacity="0.4"/><circle cx="0" cy="0" r="2" fill="#b8975a" stroke="none"/></g><g transform="translate(270 30) rotate(90)" fill="none" stroke="#b8975a" stroke-width="1" stroke-opacity="0.7"><path d="M0 22 Q0 0 22 0"/><path d="M6 22 Q6 6 22 6" stroke-opacity="0.4"/><circle cx="0" cy="0" r="2" fill="#b8975a" stroke="none"/></g><g transform="translate(270 370) rotate(180)" fill="none" stroke="#b8975a" stroke-width="1" stroke-opacity="0.7"><path d="M0 22 Q0 0 22 0"/><path d="M6 22 Q6 6 22 6" stroke-opacity="0.4"/><circle cx="0" cy="0" r="2" fill="#b8975a" stroke="none"/></g><g transform="translate(30 370) rotate(270)" fill="none" stroke="#b8975a" stroke-width="1" stroke-opacity="0.7"><path d="M0 22 Q0 0 22 0"/><path d="M6 22 Q6 6 22 6" stroke-opacity="0.4"/><circle cx="0" cy="0" r="2" fill="#b8975a" stroke="none"/></g>
  <text x="150" y="58" text-anchor="middle" font-family="'Helvetica Neue', Arial, sans-serif" font-size="10.5" font-weight="600" letter-spacing="3.2" fill="#816a3f" fill-opacity="0.85">THE WEDDING OF</text>
  <g transform="translate(150 180)"><path d="M0 0 Q17.48 -23 0 -46 Q-17.48 -23 0 0 Z" fill="#728d4e" fill-opacity="0.9" transform="translate(-20 40) rotate(-40)"/><path d="M0 0 Q17.48 -23 0 -46 Q-17.48 -23 0 0 Z" fill="#728d4e" fill-opacity="0.9" transform="translate(22 40) rotate(42)"/><path d="M0 0 Q11.4 -15 0 -30 Q-11.4 -15 0 0 Z" fill="#728d4e" fill-opacity="0.8" transform="translate(-58 34) rotate(-80)"/><path d="M0 0 Q11.4 -15 0 -30 Q-11.4 -15 0 0 Z" fill="#728d4e" fill-opacity="0.8" transform="translate(58 30) rotate(80)"/><g transform="translate(0 -8)"><ellipse cx="0" cy="-30" rx="18" ry="30" fill="#b8975a" fill-opacity="0.92" transform="rotate(0)"/><ellipse cx="0" cy="-30" rx="18" ry="30" fill="#b8975a" fill-opacity="0.92" transform="rotate(60)"/><ellipse cx="0" cy="-30" rx="18" ry="30" fill="#b8975a" fill-opacity="0.92" transform="rotate(120)"/><ellipse cx="0" cy="-30" rx="18" ry="30" fill="#b8975a" fill-opacity="0.92" transform="rotate(180)"/><ellipse cx="0" cy="-30" rx="18" ry="30" fill="#b8975a" fill-opacity="0.92" transform="rotate(240)"/><ellipse cx="0" cy="-30" rx="18" ry="30" fill="#b8975a" fill-opacity="0.92" transform="rotate(300)"/><circle r="13.2" fill="#d8c6a4"/></g><g transform="translate(0 -8)"><ellipse cx="0" cy="-16" rx="9.6" ry="16" fill="#eae0ce" fill-opacity="0.92" transform="rotate(0)"/><ellipse cx="0" cy="-16" rx="9.6" ry="16" fill="#eae0ce" fill-opacity="0.92" transform="rotate(60)"/><ellipse cx="0" cy="-16" rx="9.6" ry="16" fill="#eae0ce" fill-opacity="0.92" transform="rotate(120)"/><ellipse cx="0" cy="-16" rx="9.6" ry="16" fill="#eae0ce" fill-opacity="0.92" transform="rotate(180)"/><ellipse cx="0" cy="-16" rx="9.6" ry="16" fill="#eae0ce" fill-opacity="0.92" transform="rotate(240)"/><ellipse cx="0" cy="-16" rx="9.6" ry="16" fill="#eae0ce" fill-opacity="0.92" transform="rotate(300)"/><circle r="7.04" fill="#b8975a"/></g><g transform="translate(-54 22)"><ellipse cx="0" cy="-15" rx="9" ry="15" fill="#d8c6a4" fill-opacity="0.92" transform="rotate(0)"/><ellipse cx="0" cy="-15" rx="9" ry="15" fill="#d8c6a4" fill-opacity="0.92" transform="rotate(72)"/><ellipse cx="0" cy="-15" rx="9" ry="15" fill="#d8c6a4" fill-opacity="0.92" transform="rotate(144)"/><ellipse cx="0" cy="-15" rx="9" ry="15" fill="#d8c6a4" fill-opacity="0.92" transform="rotate(216)"/><ellipse cx="0" cy="-15" rx="9" ry="15" fill="#d8c6a4" fill-opacity="0.92" transform="rotate(288)"/><circle r="6.6" fill="#b8975a"/></g><g transform="translate(54 18)"><ellipse cx="0" cy="-17" rx="10.2" ry="17" fill="#d8c6a4" fill-opacity="0.92" transform="rotate(0)"/><ellipse cx="0" cy="-17" rx="10.2" ry="17" fill="#d8c6a4" fill-opacity="0.92" transform="rotate(72)"/><ellipse cx="0" cy="-17" rx="10.2" ry="17" fill="#d8c6a4" fill-opacity="0.92" transform="rotate(144)"/><ellipse cx="0" cy="-17" rx="10.2" ry="17" fill="#d8c6a4" fill-opacity="0.92" transform="rotate(216)"/><ellipse cx="0" cy="-17" rx="10.2" ry="17" fill="#d8c6a4" fill-opacity="0.92" transform="rotate(288)"/><circle r="7.48" fill="#b8975a"/></g></g>
  <text x="150" y="304" text-anchor="middle" font-family="Georgia, 'Times New Roman', serif" font-style="italic" font-size="28" fill="#816a3f">Rania &amp; Dimas</text>
  <g fill="#b8975a" stroke="#b8975a">
    <line x1="104" y1="322" x2="140" y2="322" stroke-width="0.8" stroke-opacity="0.6"/>
    <line x1="160" y1="322" x2="196" y2="322" stroke-width="0.8" stroke-opacity="0.6"/>
    <path d="M150 317 L154 322 L150 327 L146 322 Z" stroke="none"/>
  </g>
  <text x="150" y="346" text-anchor="middle" font-family="'Helvetica Neue', Arial, sans-serif" font-size="10" letter-spacing="2.4" fill="#816a3f" fill-opacity="0.7">12 . 12 . 2026</text>
</svg>