<svg xmlns="http://www.w3.org/2000/svg" viewBox="0 0 300 400" width="600" height="800">
  <defs>
    <linearGradient id="bg" x1="0" y1="0" x2="1" y2="1">
      <stop offset="0" stop-color="#f0e7f9"/>
      <stop offset="1" stop-color="#d8c1f0"/>
    </linearGradient>
    <radialGradient id="glow" cx="0.5" cy="0.44" r="0.5">
      <stop offset="0" stop-color="#ffffff" stop-opacity="0.75"/>
      <stop offset="1" stop-color="#ffffff" stop-opacity="0"/>
    </radialGradient>
  </defs>
  <rect width="300" height="400" fill="url(#bg)"/>
  <circle cx="150" cy="178" r="150" fill="url(#glow)"/>
  <g><ellipse cx="248.2" cy="154.2" rx="3.5" ry="7.0" fill="#823bd1" fill-opacity="0.55" transform="rotate(62 248.2 154.2)"/><ellipse cx="241.6" cy="90.6" rx="2.7" ry="5.3" fill="#c1ae0d" fill-opacity="0.55" transform="rotate(132 241.6 90.6)"/><ellipse cx="61.6" cy="298.6" rx="4.0" ry="8.1" fill="#dac4f1" fill-opacity="0.55" transform="rotate(280 61.6 298.6)"/><ellipse cx="262.8" cy="365.2" rx="2.3" ry="4.6" fill="#823bd1" fill-opacity="0.55" transform="rotate(277 262.8 365.2)"/><ellipse cx="147.3" cy="31.3" rx="2.3" ry="4.6" fill="#c1ae0d" fill-opacity="0.55" transform="rotate(139 147.3 31.3)"/><ellipse cx="34.5" cy="304.3" rx="3.3" ry="6.7" fill="#dac4f1" fill-opacity="0.55" transform="rotate(10 34.5 304.3)"/><ellipse cx="62.7" cy="66.5" rx="2.6" ry="5.2" fill="#823bd1" fill-opacity="0.55" transform="rotate(118 62.7 66.5)"/><ellipse cx="59.3" cy="153.1" rx="2.8" ry="5.6" fill="#c1ae0d" fill-opacity="0.55" transform="rotate(157 59.3 153.1)"/><ellipse cx="61.2" cy="269.8" rx="3.6" ry="7.3" fill="#dac4f1" fill-opacity="0.55" transform="rotate(161 61.2 269.8)"/><ellipse cx="258.6" cy="257.0" rx="3.7" ry="7.3" fill="#823bd1" fill-opacity="0.55" transform="rotate(68 258.6 257.0)"/><ellipse cx="242.5" cy="367.3" rx="1.8" ry="3.6" fill="#c1ae0d" fill-opacity="0.55" transform="rotate(296 242.5 367.3)"/><ellipse cx="43.4" cy="59.9" rx="2.1" ry="4.2" fill="#dac4f1" fill-opacity="0.55" transform="rotate(224 43.4 59.9)"/><ellipse cx="247.3" cy="160.0" rx="2.0" ry="3.9" fill="#823bd1" fill-opacity="0.55" transform="rotate(305 247.3 160.0)"/><ellipse cx="223.3" cy="59.6" rx="2.2" ry="4.3" fill="#c1ae0d" fill-opacity="0.55" transform="rotate(351 223.3 59.6)"/><ellipse cx="245.0" cy="40.3" rx="3.3" ry="6.6" fill="#dac4f1" fill-opacity="0.55" transform="rotate(211 245.0 40.3)"/><ellipse cx="37.8" cy="235.2" rx="3.6" ry="7.2" fill="#823bd1" fill-opacity="0.55" transform="rotate(319 37.8 235.2)"/><ellipse cx="35.5" cy="324.6" rx="2.7" ry="5.4" fill="#c1ae0d" fill-opacity="0.55" transform="rotate(200 35.5 324.6)"/><ellipse cx="43.1" cy="244.6" rx="3.8" ry="7.6" fill="#dac4f1" fill-opacity="0.55" transform="rotate(292 43.1 244.6)"/><ellipse cx="258.0" cy="124.2" rx="4.1" ry="8.1" fill="#823bd1" fill-opacity="0.55" transform="rotate(219 258.0 124.2)"/><ellipse cx="187.4" cy="363.2" rx="2.8" ry="5.5" fill="#c1ae0d" fill-opacity="0.55" transform="rotate(90 187.4 363.2)"/><ellipse cx="37.4" cy="168.6" rx="4.0" ry="8.0" fill="#dac4f1" fill-opacity="0.55" transform="rotate(205 37.4 168.6)"/><ellipse cx="214.1" cy="62.9" rx="3.7" ry="7.3" fill="#823bd1" fill-opacity="0.55" transform="rotate(287 214.1 62.9)"/></g>
  <rect x="14" y="14" width="272" height="372" rx="16" fill="none" stroke="#823bd1" stroke-opacity="0.55" stroke-width="1.4"/>
  <rect x="21" y="21" width="258" height="358" rx="12" fill="none" stroke="#823bd1" stroke-opacity="0.3" stroke-width="0.7"/>
  <g transform="translate(30 30) rotate(0)" fill="none" stroke="#823bd1" stroke-width="1" stroke-opacity="0.7"><path d="M0 22 Q0 0 22 0"/><path d="M6 22 Q6 6 22 6" stroke-opacity="0.4"/><circle cx="0" cy="0" r="2" fill="#823bd1" stroke="none"/></g><g transform="translate(270 30) rotate(90)" fill="none" stroke="#823bd1" stroke-width="1" stroke-opacity="0.7"><path d="M0 22 Q0 0 22 0"/><path d="M6 22 Q6 6 22 6" stroke-opacity="0.4"/><circle cx="0" cy="0" r="2" fill="#823bd1" stroke="none"/></g><g transform="translate(270 370) rotate(180)" fill="none" stroke="#823bd1" stroke-width="1" stroke-opacity="0.7"><path d="M0 22 Q0 0 22 0"/><path d="M6 22 Q6 6 22 6" stroke-opacity="0.4"/><circle cx="0" cy="0" r="2" fill="#823bd1" stroke="none"/></g><g transform="translate(30 370) rotate(270)" fill="none" stroke="#823bd1" stroke-width="1" stroke-opacity="0.7"><path d="M0 22 Q0 0 22 0"/><path d="M6 22 Q6 6 22 6" stroke-opacity="0.4"/><circle cx="0" cy="0" r="2" fill="#823bd1" stroke="none"/></g>
  <text x="150" y="58" text-anchor="middle" font-family="'Helvetica Neue', Arial, sans-serif" font-size="10.5" font-weight="600" letter-spacing="3.2" fill="#5b2992" fill-opacity="0.85">THE WEDDING OF</text>
  <g transform="translate(150 180)"><path d="M0 0 Q11.4 -15 0 -30 Q-11.4 -15 0 0 Z" fill="#65766c" fill-opacity="0.7" transform="translate(-70 40) rotate(-60)"/><path d="M0 0 Q9.88 -13 0 -26 Q-9.88 -13 0 0 Z" fill="#65766c" fill-opacity="0.6" transform="translate(-58 55) rotate(-30)"/><path d="M0 0 Q11.4 -15 0 -30 Q-11.4 -15 0 0 Z" fill="#65766c" fill-opacity="0.7" transform="translate(70 40) rotate(60)"/><path d="M0 0 Q9.88 -13 0 -26 Q-9.88 -13 0 0 Z" fill="#65766c" fill-opacity="0.6" transform="translate(58 55) rotate(30)"/><circle cx="-20" cy="8" r="36" fill="none" stroke="#823bd1" stroke-width="6"/><circle cx="20" cy="8" r="36" fill="none" stroke="#c1ae0d" stroke-width="6"/><path d="M-20 -40 L-10 -30 L-20 -20 L-30 -30 Z" fill="#dac4f1" stroke="#823bd1" stroke-width="2"/><path d="M0 8 C-14 -2 -12 -14 -5 -14 C-2 -14 0 -12 0 -9 C0 -12 2 -14 5 -14 C12 -14 14 -2 0 8 Z" fill="#823bd1" fill-opacity="0.8" transform="translate(0 -52) scale(0.9)"/></g>
  <text x="150" y="304" text-anchor="middle" font-family="Georgia, 'Times New Roman', serif" font-style="italic" font-size="28" fill="#5b2992">Aulia &amp; Reza</text>
  <g fill="#823bd1" stroke="#823bd1">
    <line x1="104" y1="322" x2="140" y2="322" stroke-width="0.8" stroke-opacity="0.6"/>
    <line x1="160" y1="322" x2="196" y2="322" stroke-width="0.8" stroke-opacity="0.6"/>
    <path d="M150 317 L154 322 L150 327 L146 322 Z" stroke="none"/>
  </g>
  <text x="150" y="346" text-anchor="middle" font-family="'Helvetica Neue', Arial, sans-serif" font-size="10" letter-spacing="2.4" fill="#5b2992" fill-opacity="0.7">05 . 04 . 2026</text>
</svg>