<svg xmlns="http://www.w3.org/2000/svg" viewBox="0 0 300 400" width="600" height="800">
  <defs>
    <linearGradient id="bg" x1="0" y1="0" x2="1" y2="1">
      <stop offset="0" stop-color="#323f5c"/>
      <stop offset="1" stop-color="#121b30"/>
    </linearGradient>
    <radialGradient id="glow" cx="0.5" cy="0.44" r="0.5">
      <stop offset="0" stop-color="#545f77" stop-opacity="0.75"/>
      <stop offset="1" stop-color="#545f77" stop-opacity="0"/>
    </radialGradient>
  </defs>
  <rect width="300" height="400" fill="url(#bg)"/>
  <circle cx="150" cy="178" r="150" fill="url(#glow)"/>
  <g><path d="M66.29 52.61 L69.17 52.84 L71.31 50.88 L71.08 53.77 L73.04 55.91 L70.15 55.68 L68.02 57.63 L68.24 54.75 Z" fill="#c7ccd6" fill-opacity="0.8"/><path d="M262.36 31.26 L266.57 31.74 L269.8 28.98 L269.32 33.2 L272.07 36.42 L267.86 35.95 L264.63 38.7 L265.11 34.48 Z" fill="#8d95a5" fill-opacity="0.8"/><path d="M36.96 270.86 L37.22 267.57 L34.99 265.13 L38.28 265.39 L40.71 263.16 L40.46 266.45 L42.69 268.89 L39.4 268.63 Z" fill="#44506b" fill-opacity="0.8"/><path d="M247.27 34.85 L244.23 37.74 L244.27 41.94 L241.38 38.89 L237.18 38.93 L240.22 36.04 L240.19 31.84 L243.08 34.88 Z" fill="#c7ccd6" fill-opacity="0.8"/><path d="M50.51 129.21 L49.3 132.63 L50.97 135.85 L47.55 134.64 L44.33 136.32 L45.54 132.9 L43.86 129.67 L47.28 130.88 Z" fill="#8d95a5" fill-opacity="0.8"/><path d="M264.13 342.28 L268.11 344.72 L272.61 343.48 L270.17 347.45 L271.42 351.95 L267.44 349.51 L262.94 350.76 L265.38 346.78 Z" fill="#44506b" fill-opacity="0.8"/><path d="M165.4 60 L163.26 61.15 L162.65 63.5 L161.5 61.37 L159.15 60.76 L161.28 59.6 L161.89 57.25 L163.05 59.39 Z" fill="#c7ccd6" fill-opacity="0.8"/><path d="M40.41 310.68 L39.86 306.51 L36.43 304.07 L40.6 303.52 L43.05 300.09 L43.6 304.26 L47.02 306.71 L42.85 307.26 Z" fill="#8d95a5" fill-opacity="0.8"/><path d="M36.45 256.27 L39.88 258.21 L43.63 257.03 L41.69 260.45 L42.88 264.21 L39.45 262.27 L35.7 263.45 L37.63 260.03 Z" fill="#44506b" fill-opacity="0.8"/><path d="M52.11 84.05 L49.35 84.77 L47.99 87.27 L47.28 84.51 L44.78 83.16 L47.54 82.44 L48.89 79.94 L49.61 82.7 Z" fill="#c7ccd6" fill-opacity="0.8"/><path d="M229.57 32.22 L231.8 35.72 L235.87 36.48 L232.38 38.7 L231.62 42.78 L229.39 39.29 L225.31 38.53 L228.81 36.3 Z" fill="#8d95a5" fill-opacity="0.8"/><path d="M40.86 193.38 L44.43 193.6 L47.03 191.13 L46.81 194.71 L49.27 197.3 L45.7 197.08 L43.1 199.55 L43.32 195.98 Z" fill="#44506b" fill-opacity="0.8"/><path d="M242.38 113.7 L244.94 112.89 L246.1 110.46 L246.91 113.03 L249.34 114.18 L246.77 114.99 L245.62 117.42 L244.81 114.86 Z" fill="#c7ccd6" fill-opacity="0.8"/><path d="M247.16 225.81 L244.6 224.64 L242 225.72 L243.16 223.16 L242.09 220.56 L244.65 221.72 L247.25 220.65 L246.08 223.21 Z" fill="#8d95a5" fill-opacity="0.8"/><path d="M268.63 344.62 L267.1 348.15 L268.63 351.67 L265.1 350.14 L261.58 351.67 L263.11 348.15 L261.58 344.62 L265.1 346.15 Z" fill="#44506b" fill-opacity="0.8"/><path d="M264.88 100.46 L261.99 99.66 L259.43 101.22 L260.23 98.34 L258.67 95.78 L261.56 96.58 L264.11 95.02 L263.31 97.9 Z" fill="#c7ccd6" fill-opacity="0.8"/><path d="M45.03 178.52 L43.84 176.42 L41.49 175.86 L43.6 174.67 L44.16 172.32 L45.35 174.42 L47.7 174.98 L45.6 176.17 Z" fill="#8d95a5" fill-opacity="0.8"/><path d="M56.95 228 L53.92 228.51 L52.22 231.07 L51.71 228.04 L49.15 226.34 L52.18 225.83 L53.88 223.27 L54.38 226.3 Z" fill="#44506b" fill-opacity="0.8"/><path d="M263.06 224.97 L262.73 220.87 L259.52 218.31 L263.62 217.99 L266.18 214.77 L266.5 218.87 L269.72 221.43 L265.62 221.75 Z" fill="#c7ccd6" fill-opacity="0.8"/><path d="M49.92 128.9 L49.08 131.13 L50.15 133.27 L47.91 132.43 L45.78 133.49 L46.61 131.26 L45.55 129.13 L47.78 129.96 Z" fill="#8d95a5" fill-opacity="0.8"/><path d="M35.46 152 L33.91 149.15 L30.77 148.34 L33.62 146.8 L34.43 143.66 L35.98 146.51 L39.12 147.32 L36.27 148.86 Z" fill="#44506b" fill-opacity="0.8"/><path d="M197.62 70.9 L198.24 67.5 L196.19 64.72 L199.59 65.35 L202.36 63.3 L201.74 66.69 L203.79 69.47 L200.39 68.84 Z" fill="#c7ccd6" fill-opacity="0.8"/></g>
  <rect x="14" y="14" width="272" height="372" rx="16" fill="none" stroke="#c7ccd6" stroke-opacity="0.55" stroke-width="1.4"/>
  <rect x="21" y="21" width="258" height="358" rx="12" fill="none" stroke="#c7ccd6" stroke-opacity="0.3" stroke-width="0.7"/>
  <g transform="translate(30 30) rotate(0)" fill="none" stroke="#c7ccd6" stroke-width="1" stroke-opacity="0.7"><path d="M0 22 Q0 0 22 0"/><path d="M6 22 Q6 6 22 6" stroke-opacity="0.4"/><circle cx="0" cy="0" r="2" fill="#c7ccd6" stroke="none"/></g><g transform="translate(270 30) rotate(90)" fill="none" stroke="#c7ccd6" stroke-width="1" stroke-opacity="0.7"><path d="M0 22 Q0 0 22 0"/><path d="M6 22 Q6 6 22 6" stroke-opacity="0.4"/><circle cx="0" cy="0" r="2" fill="#c7ccd6" stroke="none"/></g><g transform="translate(270 370) rotate(180)" fill="none" stroke="#c7ccd6" stroke-width="1" stroke-opacity="0.7"><path d="M0 22 Q0 0 22 0"/><path d="M6 22 Q6 6 22 6" stroke-opacity="0.4"/><circle cx="0" cy="0" r="2" fill="#c7ccd6" stroke="none"/></g><g transform="translate(30 370) rotate(270)" fill="none" stroke="#c7ccd6" stroke-width="1" stroke-opacity="0.7"><path d="M0 22 Q0 0 22 0"/><path d="M6 22 Q6 6 22 6" stroke-opacity="0.4"/><circle cx="0" cy="0" r="2" fill="#c7ccd6" stroke="none"/></g>
  <text x="150" y="58" text-anchor="middle" font-family="'Helvetica Neue', Arial, sans-serif" font-size="10.5" font-weight="600" letter-spacing="3.2" fill="#dbdee4" fill-opacity="0.85">THE WEDDING OF</text>
  <g transform="translate(150 180)"><circle r="62" fill="#c7ccd6" fill-opacity="0.08"/><path d="M-8 -50 A50 50 0 1 0 -8 50 A60 60 0 0 1 -8 -50 Z" fill="#c7ccd6"/><path d="M40 -44 L43.53 -34.85 L53.31 -34.33 L45.71 -28.15 L48.23 -18.67 L40 -24 L31.77 -18.67 L34.29 -28.15 L26.69 -34.33 L36.47 -34.85 Z" fill="#c7ccd6"/><path d="M52 13 L54.35 18.76 L60.56 19.22 L55.8 23.24 L57.29 29.28 L52 26 L46.71 29.28 L48.2 23.24 L43.44 19.22 L49.65 18.76 Z" fill="#8d95a5"/><path d="M-58 -53 L-56.24 -48.43 L-51.34 -48.16 L-55.15 -45.07 L-53.89 -40.34 L-58 -43 L-62.11 -40.34 L-60.85 -45.07 L-64.66 -48.16 L-59.76 -48.43 Z" fill="#8d95a5"/><line x1="40" y1="-72" x2="40" y2="-44" stroke="#c7ccd6" stroke-width="1" stroke-opacity="0.6"/></g>
  <text x="150" y="304" text-anchor="middle" font-family="Georgia, 'Times New Roman', serif" font-style="italic" font-size="28" fill="#dbdee4">Rania &amp; Dimas</text>
  <g fill="#c7ccd6" stroke="#c7ccd6">
    <line x1="104" y1="322" x2="140" y2="322" stroke-width="0.8" stroke-opacity="0.6"/>
    <line x1="160" y1="322" x2="196" y2="322" stroke-width="0.8" stroke-opacity="0.6"/>
    <path d="M150 317 L154 322 L150 327 L146 322 Z" stroke="none"/>
  </g>
  <text x="150" y="346" text-anchor="middle" font-family="'Helvetica Neue', Arial, sans-serif" font-size="10" letter-spacing="2.4" fill="#dbdee4" fill-opacity="0.7">05 . 04 . 2026</text>
</svg>